# xmcd CD database file
#
# Track frame offsets:
#	150
#	21807
#	37827
#	57935
#	75765
#	91780
#	117910
#	140292
#	155537
#	190617
#	217245
#	240462
#	261400
#
# Disc length: 3753 seconds
#
# Revision: 0
# Processed by: cddbd v1.5.1PL0 Copyright (c) Steve Scherf et al.
# Submitted via: CdAid (MTCDDB.DLL V2003.12.21)
#
DISCID=9f0ea70d
DTITLE=Bertus Borgers and The Groove - Live
DYEAR=1991
DGENRE=Other
TTITLE0=Memphis Underground
TTITLE1=Don't Torture Yourself
TTITLE2=Hard Stone Jungle
TTITLE3=Thank You For The Love
TTITLE4=In One Eye and Out The Other
TTITLE5=Bad Boy
TTITLE6=Tell Me More
TTITLE7=(It's A) Heartbreak
TTITLE8=Going Nowhere
TTITLE9=Woman
TTITLE10=Session In The Kitchen
TTITLE11=Still Believe
TTITLE12=(Livin'Under) City Light
EXTD=ID3G:  12 YEAR: 1991
EXTT0=
EXTT1=
EXTT2=
EXTT3=
EXTT4=
EXTT5=
EXTT6=
EXTT7=
EXTT8=
EXTT9=
EXTT10=
EXTT11=
EXTT12=
PLAYORDER=
